<?xml version="1.0" standalone="no"?>
<!DOCTYPE svg PUBLIC "-//W3C//DTD SVG 20010904//EN"
 "http://www.w3.org/TR/2001/REC-SVG-20010904/DTD/svg10.dtd">
<svg version="1.0" xmlns="http://www.w3.org/2000/svg"
 width="512.000000pt" height="512.000000pt" viewBox="0 0 512.000000 512.000000"
 preserveAspectRatio="xMidYMid meet">

<g transform="translate(0.000000,512.000000) scale(0.100000,-0.100000)"
fill="#000000" stroke="none">
<path d="M2335 4854 c-1040 -111 -1862 -878 -2046 -1909 -21 -114 -24 -162
-24 -385 0 -223 3 -271 24 -385 97 -545 371 -1023 786 -1374 354 -300 787
-484 1254 -532 69 -7 188 -10 305 -6 218 6 375 30 556 83 63 19 123 36 134 39
29 7 183 74 271 118 569 284 1002 807 1180 1427 64 224 80 344 80 630 0 223
-3 271 -24 385 -83 463 -290 875 -606 1204 -348 362 -783 594 -1275 681 -99
18 -172 23 -350 25 -124 2 -243 1 -265 -1z m-35 -1681 l55 -18 6 -90 c7 -103
33 -257 55 -317 18 -52 18 -51 -12 -32 -19 13 -46 17 -108 16 -143 -2 -332
-76 -437 -170 l-49 -44 -15 36 c-8 20 -22 53 -31 74 -26 60 -54 164 -54 200 0
26 14 48 79 120 132 146 213 219 257 230 97 26 168 24 254 -5z m989 -598 c140
-71 302 -81 430 -28 18 8 35 12 38 10 5 -6 -20 -109 -42 -166 -9 -24 -32 -68
-51 -96 -21 -32 -32 -59 -28 -69 10 -25 49 -30 101 -12 25 9 48 16 49 16 9 0
45 -101 64 -174 18 -73 20 -94 11 -143 -13 -68 -42 -131 -76 -163 l-25 -23 0
40 c0 48 -41 196 -75 271 -22 48 -26 52 -45 42 -23 -12 -22 -15 13 -140 16
-56 21 -104 22 -190 0 -107 -2 -118 -27 -160 -66 -112 -351 -325 -565 -422
-116 -52 -287 -104 -374 -114 -85 -9 -430 67 -571 126 -26 11 -54 20 -62 20
-8 0 -39 11 -68 24 -29 13 -75 34 -103 46 -97 44 -141 81 -289 243 -49 54 -99
100 -113 103 -19 5 -32 -1 -56 -23 -53 -49 -79 -63 -122 -63 -77 1 -171 62
-218 143 -35 60 -67 170 -67 231 1 95 57 214 113 237 49 21 182 6 262 -29 60
-26 73 -29 90 -18 25 16 44 68 44 122 l1 41 45 -10 c64 -15 169 6 258 52 39
20 73 41 75 48 2 6 -20 34 -47 62 -28 28 -51 55 -51 60 0 5 114 11 253 13 346
7 383 19 375 129 -1 27 -1 49 1 49 3 0 32 -29 65 -64 l61 -63 105 -26 c185
-45 270 -54 358 -35 93 19 156 47 160 71 2 9 -10 40 -27 67 -17 28 -31 53 -31
55 0 3 24 -12 53 -34 28 -21 67 -46 86 -56z m-1130 -1593 c133 -129 358 -242
454 -228 36 6 44 3 55 -15 16 -25 5 -37 -78 -77 -104 -51 -299 -31 -474 48
-60 27 -68 33 -62 53 3 12 6 92 6 177 l1 155 21 -30 c12 -16 46 -54 77 -83z"/>
<path d="M3270 2360 c-106 -13 -226 -66 -254 -113 -9 -14 -7 -21 7 -32 11 -7
26 -11 34 -8 13 5 15 0 9 -28 -4 -19 -10 -105 -13 -192 -4 -137 -3 -161 12
-183 l17 -26 129 4 c112 3 131 5 148 23 25 24 59 208 68 364 l6 103 36 -6 c20
-3 45 -9 57 -12 12 -3 30 2 45 14 l24 20 -24 25 c-37 41 -175 62 -301 47z"/>
<path d="M2052 2230 c-73 -10 -231 -54 -276 -77 -72 -36 -98 -86 -54 -102 16
-6 44 -1 92 15 83 29 216 57 225 49 3 -4 5 -91 3 -193 -3 -257 10 -281 153
-267 81 8 268 44 278 54 16 15 28 147 28 301 1 95 5 160 12 168 8 10 5 19 -12
35 -20 21 -30 22 -204 24 -100 0 -210 -3 -245 -7z"/>
<path d="M1190 2023 c0 -3 22 -29 49 -58 49 -52 88 -117 110 -187 7 -21 17
-41 23 -44 14 -9 28 15 28 50 0 71 -131 246 -184 246 -14 0 -26 -3 -26 -7z"/>
</g>
</svg>
